<svg width="32" height="32" viewBox="0 0 32 32" fill="none" xmlns="http://www.w3.org/2000/svg">
<path fill-rule="evenodd" clip-rule="evenodd" d="M16 32C24.8366 32 32 24.8366 32 16C32 7.16344 24.8366 0 16 0C7.16344 0 0 7.16344 0 16C0 24.8366 7.16344 32 16 32ZM16 30C23.732 30 30 23.732 30 16C30 8.26801 23.732 2 16 2C8.26801 2 2 8.26801 2 16C2 23.732 8.26801 30 16 30Z" fill="white"/>
<rect x="9.00391" y="10.75" width="2.47471" height="17.323" transform="rotate(-45 9.00391 10.75)" fill="white"/>
<rect x="21.25" y="9" width="2.47471" height="17.323" transform="rotate(45 21.25 9)" fill="white"/>
</svg>
